<?xml version="1.0" encoding="UTF-8"?>
<svg id="Layer_1" xmlns="http://www.w3.org/2000/svg" version="1.1" viewBox="0 0 500 126">
  <!-- Generator: Adobe Illustrator 29.5.0, SVG Export Plug-In . SVG Version: 2.1.0 Build 137)  -->
  <path d="M189.08,83.28c2.03.32,3.87,1.15,5.52,2.48,1.71,1.33,3.04,2.99,4,4.96,1.01,1.97,1.52,4.08,1.52,6.32,0,2.83-.72,5.39-2.16,7.68-1.44,2.24-3.55,4.03-6.32,5.36-2.72,1.28-5.95,1.92-9.68,1.92h-20.8v-55.76h20c3.79,0,7.01.64,9.68,1.92,2.67,1.23,4.67,2.91,6,5.04,1.33,2.13,2,4.53,2,7.2,0,3.31-.91,6.05-2.72,8.24-1.76,2.13-4.11,3.68-7.04,4.64ZM168.44,80.32h12.24c3.41,0,6.05-.8,7.92-2.4,1.87-1.6,2.8-3.81,2.8-6.64s-.93-5.04-2.8-6.64c-1.87-1.6-4.56-2.4-8.08-2.4h-12.08v18.08ZM181.32,106c3.63,0,6.45-.85,8.48-2.56,2.03-1.71,3.04-4.08,3.04-7.12s-1.07-5.52-3.2-7.28c-2.13-1.81-4.99-2.72-8.56-2.72h-12.64v19.68h12.88ZM229.34,112.72c-4.11,0-7.84-.93-11.2-2.8-3.31-1.87-5.92-4.51-7.84-7.92-1.87-3.47-2.8-7.47-2.8-12s.96-8.43,2.88-11.84c1.97-3.47,4.64-6.11,8-7.92,3.36-1.87,7.12-2.8,11.28-2.8s7.92.93,11.28,2.8c3.36,1.81,6,4.43,7.92,7.84,1.97,3.41,2.96,7.39,2.96,11.92s-1.01,8.53-3.04,12c-1.97,3.41-4.67,6.05-8.08,7.92-3.41,1.87-7.2,2.8-11.36,2.8ZM229.34,106.32c2.61,0,5.07-.61,7.36-1.84,2.29-1.23,4.13-3.07,5.52-5.52,1.44-2.45,2.16-5.44,2.16-8.96s-.69-6.51-2.08-8.96c-1.39-2.45-3.2-4.27-5.44-5.44-2.24-1.23-4.67-1.84-7.28-1.84s-5.12.61-7.36,1.84c-2.19,1.17-3.95,2.99-5.28,5.44-1.33,2.45-2,5.44-2,8.96s.64,6.59,1.92,9.04c1.33,2.45,3.09,4.29,5.28,5.52,2.19,1.17,4.59,1.76,7.2,1.76ZM280.51,112.72c-4.11,0-7.84-.93-11.2-2.8-3.31-1.87-5.92-4.51-7.84-7.92-1.87-3.47-2.8-7.47-2.8-12s.96-8.43,2.88-11.84c1.97-3.47,4.64-6.11,8-7.92,3.36-1.87,7.12-2.8,11.28-2.8s7.92.93,11.28,2.8c3.36,1.81,6,4.43,7.92,7.84,1.97,3.41,2.96,7.39,2.96,11.92s-1.01,8.53-3.04,12c-1.97,3.41-4.67,6.05-8.08,7.92-3.41,1.87-7.2,2.8-11.36,2.8ZM280.51,106.32c2.61,0,5.07-.61,7.36-1.84,2.29-1.23,4.13-3.07,5.52-5.52,1.44-2.45,2.16-5.44,2.16-8.96s-.69-6.51-2.08-8.96c-1.39-2.45-3.2-4.27-5.44-5.44-2.24-1.23-4.67-1.84-7.28-1.84s-5.12.61-7.36,1.84c-2.19,1.17-3.95,2.99-5.28,5.44-1.33,2.45-2,5.44-2,8.96s.64,6.59,1.92,9.04c1.33,2.45,3.09,4.29,5.28,5.52,2.19,1.17,4.59,1.76,7.2,1.76ZM337.05,112l-17.2-19.36v19.36h-7.28v-59.2h7.28v34.8l16.88-19.44h10.16l-20.64,21.84,20.72,22h-9.92Z" fill="#fff"/>
  <path d="M361.02,52.8v59.2h-7.28v-59.2h7.28ZM392.55,112.72c-4.11,0-7.84-.93-11.2-2.8-3.31-1.87-5.92-4.51-7.84-7.92-1.87-3.47-2.8-7.47-2.8-12s.96-8.43,2.88-11.84c1.97-3.47,4.64-6.11,8-7.92,3.36-1.87,7.12-2.8,11.28-2.8s7.92.93,11.28,2.8c3.36,1.81,6,4.43,7.92,7.84,1.97,3.41,2.96,7.39,2.96,11.92s-1.01,8.53-3.04,12c-1.97,3.41-4.67,6.05-8.08,7.92-3.41,1.87-7.2,2.8-11.36,2.8ZM392.55,106.32c2.61,0,5.07-.61,7.36-1.84,2.29-1.23,4.13-3.07,5.52-5.52,1.44-2.45,2.16-5.44,2.16-8.96s-.69-6.51-2.08-8.96c-1.39-2.45-3.2-4.27-5.44-5.44-2.24-1.23-4.67-1.84-7.28-1.84s-5.12.61-7.36,1.84c-2.19,1.17-3.95,2.99-5.28,5.44-1.33,2.45-2,5.44-2,8.96s.64,6.59,1.92,9.04c1.33,2.45,3.09,4.29,5.28,5.52,2.19,1.17,4.59,1.76,7.2,1.76ZM431.88,75.28c1.28-2.51,3.09-4.45,5.44-5.84,2.4-1.39,5.31-2.08,8.72-2.08v7.52h-1.92c-8.16,0-12.24,4.43-12.24,13.28v23.84h-7.28v-43.84h7.28v7.12ZM494.44,88.4c0,1.39-.08,2.85-.24,4.4h-35.04c.27,4.32,1.73,7.71,4.4,10.16,2.72,2.4,6,3.6,9.84,3.6,3.15,0,5.76-.72,7.84-2.16,2.13-1.49,3.63-3.47,4.48-5.92h7.84c-1.17,4.21-3.52,7.65-7.04,10.32-3.52,2.61-7.89,3.92-13.12,3.92-4.16,0-7.89-.93-11.2-2.8-3.25-1.87-5.81-4.51-7.68-7.92-1.87-3.47-2.8-7.47-2.8-12s.91-8.51,2.72-11.92c1.81-3.41,4.35-6.03,7.6-7.84,3.31-1.87,7.09-2.8,11.36-2.8s7.84.91,11.04,2.72c3.2,1.81,5.65,4.32,7.36,7.52,1.76,3.15,2.64,6.72,2.64,10.72ZM486.92,86.88c0-2.77-.61-5.15-1.84-7.12-1.23-2.03-2.91-3.55-5.04-4.56-2.08-1.07-4.4-1.6-6.96-1.6-3.68,0-6.83,1.17-9.44,3.52-2.56,2.35-4.03,5.6-4.4,9.76h27.68Z" fill="#818cf8"/>
  <path d="M94.31,3.17c0-1.75-1.42-3.17-3.17-3.17H19.1C8.68,0,.14,8.13.14,18.06v89.87c0,9.94,8.53,18.06,18.96,18.06h72.17c10.43,0,18.96-8.13,18.96-18.06V24.57c0-1.75-1.42-3.17-3.17-3.17h-41.41c-4.25,0-7.7,3.45-7.7,7.7v26.67c0,1.39-1.67,2.11-2.68,1.15l-10.79-10.28c-.61-.58-1.57-.58-2.19,0l-10.79,10.28c-1.01.96-2.68.25-2.68-1.15V21.4h-8.29c-5.96,0-10.83-3.39-10.83-7.53s4.87-7.53,10.83-7.53h70.6c1.75,0,3.17-1.42,3.17-3.17Z" fill="#818cf8"/>
  <path d="M52.37,16.82v28.27l-5.01-2.83-.23-.12c-2.36-1.22-5.46-1.18-7.77.12l-5.01,2.83v-28.26" fill="#fff"/>
  <rect x="16.17" y="10.13" width="74.63" height="6.69" rx="3.34" ry="3.34" fill="#fff"/>
</svg>